# xmcd
# 
# Track frame offsets:
#     150
#     8512
#     20063
#     30374
#     46124
#     55327
#     66272
#     77226
#     84689
#     96302
#     106303
#     116406
#     129390
#     138756
#     150483
#     160545
#     171305
#     185210
#     197241
#     208315
#     218176
#     229494
#     243424
#     256880
#     269553
# 
# Disc length: 3727
# 
# Revision: 1
# Processed by: cddbd v1.5.2PL0 Copyright (c) Steve Scherf et al.
# Submitted via: fre:ac v1.0.17
# 
DISCID=610e8d19
DTITLE=Bob Wills And His Texas Playboys - Riding Your Way - The Lost Transcriptions for Tiffany Music 1946-1947  [CD 2)
DYEAR=2014
DGENRE=Western Swing
TTITLE0=Sally Johnson (Instrumental)
TTITLE1=Silver Dew On The Blue Grass Tonight
TTITLE2=No Wonder (That I Love You)
TTITLE3=I Knew The Moment I Lost You
TTITLE4=I'm Thinking Tonight Of My Blue Eyes
TTITLE5=Love Letters In The Sand
TTITLE6=River Stay 'Way From My Door
TTITLE7=Soldier's Joy (Instrumental - Version 2)
TTITLE8=Have I Stayed Away Too Long
TTITLE9=Margie
TTITLE10=My Wild Irish Rose
TTITLE11=Take Me Back To My Boots And Saddle
TTITLE12=You Are My Sunshine
TTITLE13=She's Killing Me
TTITLE14=Detour
TTITLE15=Bubbles In My Beer
TTITLE16=Don't Be Ashamed Of Your Age
TTITLE17=Be Honest With Me
TTITLE18=Don't Fence Me In (Take 2)
TTITLE19=I'm An Old Cowhand (Take 2)
TTITLE20=Don't You Hear Jerusalem Moan (Take 2)
TTITLE21=My Little Buckaroo (Take 3)
TTITLE22=Each Minute Seems Like A Million Years
TTITLE23=She's Gone
TTITLE24=Still Water Runs The Deepest
EXTD=
EXTT0=
EXTT1=
EXTT2=
EXTT3=
EXTT4=
EXTT5=
EXTT6=
EXTT7=
EXTT8=
EXTT9=
EXTT10=
EXTT11=
EXTT12=
EXTT13=
EXTT14=
EXTT15=
EXTT16=
EXTT17=
EXTT18=
EXTT19=
EXTT20=
EXTT21=
EXTT22=
EXTT23=
EXTT24=
PLAYORDER=
